# xmcd
#
# Track frame offsets:
#	150
#	17487
#	33996
#	50816
#	66288
#	85046
#	102681
#	119883
#	135571
#	155183
#	169517
#	185140
#
# Disc length: 2714 seconds
#
# Revision: 1
# Processed by: cddbd v1.5.2PL0 Copyright (c) Steve Scherf et al.
# Submitted via: audiograbber 1.83.01
#
DISCID=ae0a980c
DTITLE=Jakub Smolik - Ja za Tebou dal budu stat
DYEAR=2009
DGENRE=Country
TTITLE0=Ja za Tebou dal budu stat
TTITLE1=Barbara
TTITLE2=Tahleta pisen je Tva
TTITLE3=Nejde vratit cas
TTITLE4=Zdas se mi
TTITLE5=Nocni vila
TTITLE6=Butterfly
TTITLE7=Kde je vubec Buh
TTITLE8=Ja nejsem zlej
TTITLE9=V nebi lasko spis
TTITLE10=Sileny cas
TTITLE11=Priteli Jiri
EXTD=
EXTT0=
EXTT1=
EXTT2=
EXTT3=
EXTT4=
EXTT5=
EXTT6=
EXTT7=
EXTT8=
EXTT9=
EXTT10=
EXTT11=
PLAYORDER=
